<?xml version="1.0" encoding="iso-8859-1"?>
<!-- Generator: Adobe Illustrator 16.0.0, SVG Export Plug-In . SVG Version: 6.00 Build 0)  -->
<!DOCTYPE svg PUBLIC "-//W3C//DTD SVG 1.1//EN" "http://www.w3.org/Graphics/SVG/1.1/DTD/svg11.dtd">
<svg version="1.1" id="Capa_1" xmlns="http://www.w3.org/2000/svg" xmlns:xlink="http://www.w3.org/1999/xlink" x="0px" y="0px"
	 width="181.562px" height="181.562px" viewBox="0 0 181.562 181.562" style="enable-background:new 0 0 181.562 181.562;"
	 xml:space="preserve">
<g>
	<path d="M181.153,55.97c0,0-3.162-32.598-7.625-37.459l-1.897-11.003l-7.258,9.883c0,0-29.921-9.599-46.849,34.427
		c0,0-0.633,1.114-1.851,2.813c-2.11-0.701-4.303-1.628-5.06-2.601c-0.97-1.253-1.395-4.812-0.863-6.313
		c0.875-2.396,0.013-12.486,0.013-12.486c5.798-0.133,8.139-6.567,8.139-6.567l3.286,1.59c1.525-2.403,0.195-8.281-0.662-10.217
		c-4.941-11.044-16.29-4.54-16.29-4.54c-7.312,5.14-1.495,8.881-1.495,8.881c-3.251-0.098-12.944,1.862-17.091,3.363
		c-7.897,2.858-22.012,17.343-22.012,17.343c-7.19,7.051-3.287,13.491-3.287,13.491c2.119,4.812,21.116,15.12,21.116,15.12
		c0.884,0.745,1.421,1.729,1.785,2.79c-4.223,0.237-8.769-0.201-13.707-1.761c-9.708-3.062-18.063-11.29-38.949,11.856
		c0,0-37.829,0-29.362,47.42c0,0,14.115-6.774,18.066-25.973c0,0,2.822-14.673,10.164-12.986c0,0-5.08,23.153,23.708,35.003
		c0,0,0.568,7.336-3.948,10.729c0,0-5.651,8.452,11.284,14.67c0,0,16.725,7.342,20.111,13.689c0,0,3.39,2.116,8.044,1.277
		c0,0-1.906,5.496,6.144,5.496c0,0,6.975,1.064,6.975-2.541c0,0-2.328-5.929-6.762-6.561c0,0-5.722-8.039-13.346-8.689
		c0,0-12.912-1.478-12.487-13.748c0,0,8.255-13.985,6.349-26.244c0,0,43.388,9.103,56.941-1.276c0,0,1.058,4.433,4.864,4.22
		l0.426,3.404c0,0-2.536,0.213-3.6,2.956c0,0-0.633,1.903,3.168,1.69v4.02c0,0,0.213,3.605,6.986-0.852c0,0,12.909-1.69,17.147-9.31
		c0,0,18.412-7.843,12.909-16.521c0,0-3.605-8.051-12.276-5.922l-9.316,0.413c0,0,5.297-9.105-1.063-17.363
		c0,0,6.36-22.641,4.87-35.976c0,0,4.439,11.222,9.954,12.909c0,0-0.633,8.258,9.96,7.421
		C176.496,65.927,183.264,65.292,181.153,55.97z M101.14,44.494c0,0,1.011,7.155,2.482,8.195c0,0-4.203-0.26-4.906-1.53
		c-0.544-1.005-0.757-5.678-0.757-5.678L101.14,44.494z M100.282,69.122c-3.091-5.367-12.628-12.735-12.628-12.735
		c-5.399-5.106,2.899-6.954,2.899-6.954l1.992,7.844c3.414,6.091,18.199,3.136,18.199,3.136l0.118,0.092
		C108.155,63.397,104.609,66.533,100.282,69.122z M159.769,111.856c-2.956,4.877-12.915,7.141-12.915,7.141
		C148.55,115.752,159.769,111.856,159.769,111.856z"/>
</g>
<g>
</g>
<g>
</g>
<g>
</g>
<g>
</g>
<g>
</g>
<g>
</g>
<g>
</g>
<g>
</g>
<g>
</g>
<g>
</g>
<g>
</g>
<g>
</g>
<g>
</g>
<g>
</g>
<g>
</g>
</svg>
